<mxfile host="www.draw.io" modified="2019-11-16T19:53:09.402Z" agent="Mozilla/5.0 (Windows NT 10.0; Win64; x64) AppleWebKit/537.36 (KHTML, like Gecko) Chrome/78.0.3904.97 Safari/537.36" etag="9A4d1Di1U-fcX9_3ytZ1" version="12.2.6" type="github" pages="1">
  <diagram id="h4rjjVrQEiTamb06ASox" name="Page-1">
    <mxGraphModel dx="612" dy="565" grid="1" gridSize="10" guides="1" tooltips="1" connect="1" arrows="1" fold="1" page="1" pageScale="1" pageWidth="850" pageHeight="1100" math="0" shadow="0">
      <root>
        <mxCell id="0"/>
        <mxCell id="1" parent="0"/>
        <mxCell id="-1VhUEHTwLR25HVaB6Jy-5" value="UnionFind" style="swimlane;fontStyle=1;align=center;verticalAlign=top;childLayout=stackLayout;horizontal=1;startSize=26;horizontalStack=0;resizeParent=1;resizeParentMax=0;resizeLast=0;collapsible=1;marginBottom=0;" parent="1" vertex="1">
          <mxGeometry x="440" y="550" width="200" height="120" as="geometry"/>
        </mxCell>
        <mxCell id="-1VhUEHTwLR25HVaB6Jy-6" value="- list: Integer" style="text;strokeColor=none;fillColor=none;align=left;verticalAlign=top;spacingLeft=4;spacingRight=4;overflow=hidden;rotatable=0;points=[[0,0.5],[1,0.5]];portConstraint=eastwest;" parent="-1VhUEHTwLR25HVaB6Jy-5" vertex="1">
          <mxGeometry y="26" width="200" height="26" as="geometry"/>
        </mxCell>
        <mxCell id="-1VhUEHTwLR25HVaB6Jy-7" value="" style="line;strokeWidth=1;fillColor=none;align=left;verticalAlign=middle;spacingTop=-1;spacingLeft=3;spacingRight=3;rotatable=0;labelPosition=right;points=[];portConstraint=eastwest;" parent="-1VhUEHTwLR25HVaB6Jy-5" vertex="1">
          <mxGeometry y="52" width="200" height="8" as="geometry"/>
        </mxCell>
        <mxCell id="-1VhUEHTwLR25HVaB6Jy-8" value="+ UnionFind()&#xa;+ union()&#xa;+ find(): Integer" style="text;strokeColor=none;fillColor=none;align=left;verticalAlign=top;spacingLeft=4;spacingRight=4;overflow=hidden;rotatable=0;points=[[0,0.5],[1,0.5]];portConstraint=eastwest;" parent="-1VhUEHTwLR25HVaB6Jy-5" vertex="1">
          <mxGeometry y="60" width="200" height="60" as="geometry"/>
        </mxCell>
        <mxCell id="akrSo3H3S9s1iq-GIOsp-20" style="edgeStyle=orthogonalEdgeStyle;rounded=0;orthogonalLoop=1;jettySize=auto;html=1;exitX=0.5;exitY=1;exitDx=0;exitDy=0;" edge="1" parent="1" source="-1VhUEHTwLR25HVaB6Jy-9" target="-1VhUEHTwLR25HVaB6Jy-5">
          <mxGeometry relative="1" as="geometry"/>
        </mxCell>
        <mxCell id="-1VhUEHTwLR25HVaB6Jy-9" value="Hex" style="swimlane;fontStyle=1;align=center;verticalAlign=top;childLayout=stackLayout;horizontal=1;startSize=26;horizontalStack=0;resizeParent=1;resizeParentMax=0;resizeLast=0;collapsible=1;marginBottom=0;" parent="1" vertex="1">
          <mxGeometry x="435" y="200" width="210" height="290" as="geometry"/>
        </mxCell>
        <mxCell id="-1VhUEHTwLR25HVaB6Jy-10" value="- size: int&#xa;- graph: Arraylist&lt;Hexagon&gt;&#xa;- up: Arraylist&lt;Hexagon&gt;&#xa;- down: Arraylist&lt;Hexagon&gt;&#xa;- left: Arraylist&lt;Hexagon&gt;&#xa;- right: Arraylist&lt;Hexagon&gt;&#xa;- unionFind" style="text;strokeColor=none;fillColor=none;align=left;verticalAlign=top;spacingLeft=4;spacingRight=4;overflow=hidden;rotatable=0;points=[[0,0.5],[1,0.5]];portConstraint=eastwest;" parent="-1VhUEHTwLR25HVaB6Jy-9" vertex="1">
          <mxGeometry y="26" width="210" height="114" as="geometry"/>
        </mxCell>
        <mxCell id="-1VhUEHTwLR25HVaB6Jy-11" value="" style="line;strokeWidth=1;fillColor=none;align=left;verticalAlign=middle;spacingTop=-1;spacingLeft=3;spacingRight=3;rotatable=0;labelPosition=right;points=[];portConstraint=eastwest;" parent="-1VhUEHTwLR25HVaB6Jy-9" vertex="1">
          <mxGeometry y="140" width="210" height="8" as="geometry"/>
        </mxCell>
        <mxCell id="-1VhUEHTwLR25HVaB6Jy-12" value="+ Hex(): size = 11&#xa;+ Hex(int size)&#xa;+ addUp()&#xa;+ addDown()&#xa;+ addLeft()&#xa;+ addRight&#xa;+ addBlank()&#xa;+ change()&#xa;+ winner()" style="text;strokeColor=none;fillColor=none;align=left;verticalAlign=top;spacingLeft=4;spacingRight=4;overflow=hidden;rotatable=0;points=[[0,0.5],[1,0.5]];portConstraint=eastwest;" parent="-1VhUEHTwLR25HVaB6Jy-9" vertex="1">
          <mxGeometry y="148" width="210" height="142" as="geometry"/>
        </mxCell>
        <mxCell id="akrSo3H3S9s1iq-GIOsp-1" value="Main" style="swimlane;fontStyle=1;align=center;verticalAlign=top;childLayout=stackLayout;horizontal=1;startSize=26;horizontalStack=0;resizeParent=1;resizeParentMax=0;resizeLast=0;collapsible=1;marginBottom=0;" vertex="1" parent="1">
          <mxGeometry x="280" y="40" width="220" height="120" as="geometry"/>
        </mxCell>
        <mxCell id="akrSo3H3S9s1iq-GIOsp-2" value="+ redPlayer: boolean&#xa;+ count: int" style="text;strokeColor=none;fillColor=none;align=left;verticalAlign=top;spacingLeft=4;spacingRight=4;overflow=hidden;rotatable=0;points=[[0,0.5],[1,0.5]];portConstraint=eastwest;" vertex="1" parent="akrSo3H3S9s1iq-GIOsp-1">
          <mxGeometry y="26" width="220" height="44" as="geometry"/>
        </mxCell>
        <mxCell id="akrSo3H3S9s1iq-GIOsp-3" value="" style="line;strokeWidth=1;fillColor=none;align=left;verticalAlign=middle;spacingTop=-1;spacingLeft=3;spacingRight=3;rotatable=0;labelPosition=right;points=[];portConstraint=eastwest;" vertex="1" parent="akrSo3H3S9s1iq-GIOsp-1">
          <mxGeometry y="70" width="220" height="8" as="geometry"/>
        </mxCell>
        <mxCell id="akrSo3H3S9s1iq-GIOsp-4" value="+ PrintBoard( int, Borderpane):Pane&#xa;+ start(Stage)" style="text;strokeColor=none;fillColor=none;align=left;verticalAlign=top;spacingLeft=4;spacingRight=4;overflow=hidden;rotatable=0;points=[[0,0.5],[1,0.5]];portConstraint=eastwest;" vertex="1" parent="akrSo3H3S9s1iq-GIOsp-1">
          <mxGeometry y="78" width="220" height="42" as="geometry"/>
        </mxCell>
        <mxCell id="akrSo3H3S9s1iq-GIOsp-10" value="Hexagon" style="swimlane;fontStyle=1;align=center;verticalAlign=top;childLayout=stackLayout;horizontal=1;startSize=26;horizontalStack=0;resizeParent=1;resizeParentMax=0;resizeLast=0;collapsible=1;marginBottom=0;" vertex="1" parent="1">
          <mxGeometry x="120" y="200" width="160" height="180" as="geometry"/>
        </mxCell>
        <mxCell id="akrSo3H3S9s1iq-GIOsp-11" value="- player: Integer&#xa;- value: Integer&#xa;+ index: int&#xa;+ image: Image&#xa;" style="text;strokeColor=none;fillColor=none;align=left;verticalAlign=top;spacingLeft=4;spacingRight=4;overflow=hidden;rotatable=0;points=[[0,0.5],[1,0.5]];portConstraint=eastwest;" vertex="1" parent="akrSo3H3S9s1iq-GIOsp-10">
          <mxGeometry y="26" width="160" height="64" as="geometry"/>
        </mxCell>
        <mxCell id="akrSo3H3S9s1iq-GIOsp-12" value="" style="line;strokeWidth=1;fillColor=none;align=left;verticalAlign=middle;spacingTop=-1;spacingLeft=3;spacingRight=3;rotatable=0;labelPosition=right;points=[];portConstraint=eastwest;" vertex="1" parent="akrSo3H3S9s1iq-GIOsp-10">
          <mxGeometry y="90" width="160" height="8" as="geometry"/>
        </mxCell>
        <mxCell id="akrSo3H3S9s1iq-GIOsp-13" value="+ setPlayer()&#xa;+ setValue()&#xa;+ addValue()&#xa;+ equals(): boolean&#xa;+ compareTo(): int" style="text;strokeColor=none;fillColor=none;align=left;verticalAlign=top;spacingLeft=4;spacingRight=4;overflow=hidden;rotatable=0;points=[[0,0.5],[1,0.5]];portConstraint=eastwest;" vertex="1" parent="akrSo3H3S9s1iq-GIOsp-10">
          <mxGeometry y="98" width="160" height="82" as="geometry"/>
        </mxCell>
        <mxCell id="akrSo3H3S9s1iq-GIOsp-18" style="edgeStyle=orthogonalEdgeStyle;rounded=0;orthogonalLoop=1;jettySize=auto;html=1;exitX=1;exitY=0.5;exitDx=0;exitDy=0;" edge="1" parent="1" source="akrSo3H3S9s1iq-GIOsp-4" target="-1VhUEHTwLR25HVaB6Jy-9">
          <mxGeometry relative="1" as="geometry"/>
        </mxCell>
        <mxCell id="akrSo3H3S9s1iq-GIOsp-19" style="edgeStyle=orthogonalEdgeStyle;rounded=0;orthogonalLoop=1;jettySize=auto;html=1;exitX=0;exitY=0.5;exitDx=0;exitDy=0;" edge="1" parent="1" source="akrSo3H3S9s1iq-GIOsp-4" target="akrSo3H3S9s1iq-GIOsp-10">
          <mxGeometry relative="1" as="geometry"/>
        </mxCell>
      </root>
    </mxGraphModel>
  </diagram>
</mxfile>
